<?xml version="1.0" encoding="utf-8"?>
<!-- Generator: Adobe Illustrator 16.0.4, SVG Export Plug-In . SVG Version: 6.00 Build 0)  -->
<!DOCTYPE svg PUBLIC "-//W3C//DTD SVG 1.1//EN" "http://www.w3.org/Graphics/SVG/1.1/DTD/svg11.dtd">
<svg version="1.1" id="Layer_1" xmlns="http://www.w3.org/2000/svg" xmlns:xlink="http://www.w3.org/1999/xlink" x="0px" y="0px"
	 width="132.015px" height="130px" viewBox="0 0 132.015 130" enable-background="new 0 0 132.015 130" xml:space="preserve">
<g>
	<g>
		<path fill-rule="evenodd" clip-rule="evenodd" fill="#19BEBE" d="M114.625,76.82c4.42,0.566,8.665,1.111,12.911,1.657
			c0.12,0.015,0.241,0.022,0.36,0.046c4.139,0.798,4.174,0.8,4.104,4.955c-0.229,13.809-0.477,21.436-0.737,35.243
			c-0.077,4.044-0.065,4.272-4.081,5.035c-8.128,1.541-16.275,3.052-24.473,4.134c-14.432,1.908-28.96,2.457-43.506,2.066
			c-17.502-0.47-34.908-1.947-52.055-5.709c-1.238-0.271-2.448-0.739-3.697-0.881c-2.166-0.247-2.625-1.471-2.652-3.449
			c-0.204-14.962-0.482-23.74-0.798-38.7c-0.028-1.306,0.644-1.795,1.635-1.977c3.56-0.652,7.13-1.255,10.708-1.805
			c1.545-0.238,3.116-0.305,4.792-0.459c0-3.007,0.047-5.957-0.009-8.904c-0.162-8.48-0.36-16.959-0.559-25.438
			c-0.058-2.487,0.099-2.941,2.524-3.323c4.058-0.641,8.155-1.033,12.236-1.516c0.65-0.077,1.308-0.081,2.136-0.129
			c0-3.1,0.026-6.107-0.004-9.112c-0.091-8.78-0.179-15.378-0.337-24.158c-0.024-1.291,0.844-1.588,1.654-1.78
			c2.406-0.567,4.831-1.195,7.283-1.412c13.532-1.197,27.088-1.554,40.648-0.52c4.15,0.317,8.306,0.804,12.405,1.518
			c3.081,0.537,3.086,0.754,3.053,3.785c-0.119,10.66-0.236,19.139-0.445,29.797c-0.029,1.498-1.999,1.991,1.849,2.024
			c4.288,0.037,8.551,0.79,12.788,1.437c2.918,0.446,2.969,0.691,2.911,3.695c-0.203,10.538-0.429,21.074-0.641,31.612
			C114.61,75.326,114.625,76.1,114.625,76.82z"/>
	</g>
	<path fill="#F46F22" d="M0.232,80.091c0,0,67.899,12.619,131.511,0c0,0,1.188-4.72-65.755-4.86
		C0.93,75.094,0.232,80.091,0.232,80.091z"/>
	<path fill-rule="evenodd" clip-rule="evenodd" fill="#19BEBE" d="M17.72,67.957v11.272c0,0,51,8,97,0v-7.272L17.72,67.957z"/>
	<path fill="#F46F22" d="M16.671,40.695c0,0,47.656,6.919,98.504,0c0,0,5.273-4.01-49.167-4.01
		C11.645,36.685,16.671,40.695,16.671,40.695z"/>
	<path fill-rule="evenodd" clip-rule="evenodd" fill="#19BEBE" d="M33.72,33v6.594c0,0,33.025,3.879,64.115,0.061
		c0,0-0.099-4.654-0.063-6.654H33.72z"/>
	<path fill="#F46F22" d="M33.314,3.483c0,0,30.33,4.736,64.671,0c0,0,1.956-3.409-32.335-3.406
		C31.358,0.08,33.314,3.483,33.314,3.483z"/>
</g>
</svg>
