<?xml version="1.0" encoding="utf-8"?>
<!-- Generator: Adobe Illustrator 16.0.4, SVG Export Plug-In . SVG Version: 6.00 Build 0)  -->
<!DOCTYPE svg PUBLIC "-//W3C//DTD SVG 1.1//EN" "http://www.w3.org/Graphics/SVG/1.1/DTD/svg11.dtd">
<svg version="1.1" id="Layer_1" xmlns="http://www.w3.org/2000/svg" xmlns:xlink="http://www.w3.org/1999/xlink" x="0px" y="0px"
	 width="132.015px" height="130px" viewBox="57.28 35 132.015 130" enable-background="new 57.28 35 132.015 130"
	 xml:space="preserve">
<g>
	<g>
		<path fill="#FBB333" d="M171.905,111.82c4.42,0.567,8.665,1.112,12.911,1.657c0.12,0.015,0.241,0.022,0.36,0.047
			c4.139,0.797,4.174,0.799,4.104,4.955c-0.23,13.808-0.477,21.436-0.738,35.243c-0.076,4.043-0.065,4.271-4.081,5.033
			c-8.127,1.543-16.274,3.053-24.472,4.136c-14.432,1.907-28.96,2.457-43.507,2.066c-17.502-0.47-34.908-1.947-52.055-5.709
			c-1.238-0.271-2.448-0.739-3.697-0.881c-2.166-0.247-2.625-1.471-2.652-3.449c-0.204-14.962-0.483-23.74-0.798-38.7
			c-0.028-1.307,0.644-1.796,1.635-1.977c3.561-0.652,7.131-1.255,10.708-1.805c1.545-0.237,3.117-0.305,4.792-0.459
			c0-3.007,0.047-5.956-0.009-8.905c-0.163-8.479-0.361-16.958-0.559-25.438c-0.058-2.486,0.099-2.941,2.523-3.323
			c4.059-0.64,8.154-1.033,12.237-1.516c0.65-0.078,1.308-0.081,2.136-0.129c0-3.101,0.026-6.107-0.005-9.113
			c-0.09-8.78-0.178-15.378-0.337-24.159c-0.023-1.291,0.844-1.589,1.654-1.78c2.406-0.568,4.83-1.195,7.282-1.412
			c13.533-1.197,27.088-1.554,40.65-0.52c4.15,0.317,8.305,0.803,12.404,1.518c3.081,0.537,3.087,0.754,3.054,3.785
			c-0.119,10.66-0.236,19.139-0.446,29.797c-0.028,1.498-1.999,1.992,1.849,2.024c4.288,0.037,8.551,0.79,12.789,1.437
			c2.917,0.446,2.968,0.69,2.91,3.695c-0.202,10.537-0.428,21.074-0.64,31.611C171.892,110.326,171.905,111.1,171.905,111.82z"/>
	</g>
	<path fill="#F46F22" d="M57.512,115.091c0,0,67.899,12.619,131.512,0c0,0,1.188-4.72-65.756-4.86
		C58.21,110.093,57.512,115.091,57.512,115.091z"/>
	<path fill="#FBB333" d="M75,102.957v11.273c0,0,50.701,8,96.85,0v-7.272L75,102.957z"/>
	<path fill="#F46F22" d="M73.951,75.694c0,0,47.657,6.919,98.504,0c0,0,5.272-4.01-49.168-4.01
		C68.924,71.685,73.951,75.694,73.951,75.694z"/>
	<path fill="#FBB333" d="M91.25,68.177v6.417c0,0,32.9,3.967,63.99,0.149c0,0-0.225-4.616-0.189-6.566H91.25z"/>
	<path fill="#F46F22" d="M90.595,38.482c0,0,30.33,4.737,64.671,0c0,0,1.957-3.409-32.335-3.406S90.595,38.482,90.595,38.482z"/>
</g>
</svg>
